<svg width="24" height="24" viewBox="0 0 24 24" fill="none" xmlns="http://www.w3.org/2000/svg">
<g clip-path="url(#clip0_27_1416)">
<path fill-rule="evenodd" clip-rule="evenodd" d="M22.7465 4.83455C23.1189 5.20932 23.3863 5.67531 23.522 6.1859C24.0238 8.07044 24.0238 12.0004 24.0238 12.0004C24.0238 12.0004 24.0238 15.9304 23.522 17.815C23.3863 18.3256 23.1189 18.7916 22.7465 19.1663C22.3741 19.5411 21.9099 19.8115 21.4002 19.9504C19.5238 20.455 12.0238 20.455 12.0238 20.455C12.0238 20.455 4.5238 20.455 2.64744 19.9504C2.13773 19.8115 1.67346 19.5411 1.30109 19.1663C0.92872 18.7916 0.661309 18.3256 0.525622 17.815C0.0238038 15.9304 0.0238037 12.0004 0.0238037 12.0004C0.0238037 12.0004 0.0238038 8.07044 0.525622 6.1859C0.661309 5.67531 0.92872 5.20932 1.30109 4.83455C1.67346 4.45979 2.13773 4.1894 2.64744 4.05044C4.5238 3.5459 12.0238 3.5459 12.0238 3.5459C12.0238 3.5459 19.5238 3.5459 21.4002 4.05044C21.9099 4.1894 22.3741 4.45979 22.7465 4.83455ZM15.842 12.0005L9.56927 8.43184V15.5691L15.842 12.0005Z" fill="#9CA6A4"/>
</g>
<defs>
<clipPath id="clip0_27_1416">
<rect width="24" height="24" fill="white"/>
</clipPath>
</defs>
</svg>
