<svg width="34" height="48" viewBox="0 0 34 48" fill="none" xmlns="http://www.w3.org/2000/svg">
<g clip-path="url(#clip0_575_335)">
<path d="M13.5221 23.0116C13.5221 23.7881 13.4513 24.4234 13.1681 24.9175C12.8849 25.4116 12.6017 25.8351 12.177 26.1175C11.7522 26.3998 11.3274 26.6116 10.8318 26.7528C10.3363 26.8234 9.91149 26.894 9.48671 26.894C9.41591 26.894 9.27432 26.894 9.13273 26.894C8.99113 26.894 8.84954 26.894 8.63715 26.8234C8.49555 26.8234 8.28317 26.7528 8.14157 26.7528C7.99998 26.7528 7.85839 26.6822 7.7168 26.6822C7.7168 26.4704 7.78759 26.2587 7.78759 26.0469C7.85839 25.7646 7.85839 25.5528 7.92918 25.341C7.99998 25.1293 7.99998 24.8469 8.07078 24.6351C8.14158 24.4234 8.14157 24.2116 8.21237 24.141H8.84954L9.69909 25.9057C9.98228 25.9057 10.1947 25.8351 10.3363 25.7646C10.4779 25.694 10.6194 25.5528 10.6902 25.341C10.761 25.1293 10.8318 24.8469 10.8318 24.494C10.8318 24.141 10.8318 23.7175 10.8318 23.2234L10.2655 14.0469C10.1947 13.2704 10.3363 12.6351 10.6195 12.141C10.9026 11.6469 11.1858 11.2234 11.6106 10.941C12.0354 10.6587 12.4602 10.4469 12.9557 10.3057C13.4513 10.1646 13.8761 10.1646 14.3009 10.1646C14.3717 10.1646 14.5133 10.1646 14.6548 10.1646C14.7964 10.1646 14.938 10.1646 15.1504 10.2351C15.3628 10.3057 15.5044 10.3057 15.646 10.3057C15.7876 10.3057 15.9292 10.3763 16.0708 10.3763C16.0708 10.5881 16 10.7998 16 11.0822C16 11.294 15.9292 11.5763 15.8584 11.7881C15.7876 11.9998 15.7876 12.2822 15.7168 12.494C15.646 12.7057 15.646 12.9175 15.5752 12.9881H14.938L14.0885 11.2234C13.8761 11.2234 13.6637 11.294 13.5221 11.3646C13.3805 11.4351 13.2389 11.5763 13.1681 11.7881C13.0973 11.9998 13.0265 12.2822 12.9557 12.6351C12.9557 12.9881 12.9557 13.4116 12.9557 13.9057L13.5221 23.0116Z" fill="#E1B425"/>
<path d="M18.6195 26.3292C18.6195 27.1057 18.5487 27.741 18.2655 28.2351C17.9823 28.7292 17.6991 29.1528 17.2743 29.4351C16.8495 29.7175 16.4248 29.9292 15.9292 30.0704C15.4336 30.2116 15.0088 30.2116 14.5841 30.2116C14.5133 30.2116 14.3717 30.2116 14.2301 30.2116C14.0885 30.2116 13.9469 30.2116 13.7345 30.141C13.5929 30.141 13.3805 30.0704 13.2389 30.0704C13.0973 30.0704 12.9557 29.9998 12.8141 29.9998C12.8141 29.7881 12.8849 29.5763 12.8849 29.3645C12.9557 29.0822 12.9557 28.8704 13.0265 28.6586C13.0973 28.4469 13.0973 28.1645 13.1681 27.9528C13.2389 27.741 13.2389 27.5292 13.3097 27.4586H13.9469L14.7965 29.2234C15.0796 29.2234 15.292 29.1528 15.4336 29.0822C15.5752 29.0116 15.7168 28.8704 15.7876 28.6586C15.8584 28.4469 15.9292 28.1645 15.9292 27.8116C15.9292 27.4586 15.9292 27.0351 15.9292 26.541L15.3628 17.3645C15.292 16.5881 15.4336 15.9528 15.7168 15.4586C16 14.9645 16.2832 14.541 16.708 14.2586C17.1327 13.9763 17.5575 13.7645 18.0531 13.6234C18.5487 13.4822 18.9734 13.4822 19.3982 13.4822C19.469 13.4822 19.6106 13.4822 19.7522 13.4822C19.8938 13.4822 20.0354 13.4822 20.2478 13.5528C20.3894 13.5528 20.6018 13.6234 20.7434 13.6234C20.8849 13.6234 21.0265 13.6939 21.1681 13.6939C21.1681 13.9057 21.0973 14.1175 21.0973 14.3998C21.0973 14.6116 21.0265 14.8939 20.9557 15.1057C20.8849 15.3175 20.8849 15.5998 20.8141 15.8116C20.7434 16.0234 20.7433 16.2351 20.6726 16.3057H20.0354L19.1858 14.541C18.9734 14.541 18.7611 14.6116 18.6195 14.6822C18.4779 14.7528 18.3363 14.8939 18.2655 15.1057C18.1947 15.3175 18.1239 15.5998 18.0531 15.9528C18.0531 16.3057 18.0531 16.7292 18.0531 17.2234L18.6195 26.3292Z" fill="#E1B425"/>
<path d="M23.646 29.6469C23.646 30.4233 23.5752 31.0586 23.292 31.5527C23.0088 32.0469 22.7257 32.4704 22.3009 32.7527C21.8761 33.0351 21.4513 33.2469 20.9557 33.388C20.4602 33.5292 20.0354 33.5292 19.6106 33.5292C19.5398 33.5292 19.3982 33.5292 19.2566 33.5292C19.115 33.5292 18.9734 33.5292 18.7611 33.4586C18.6195 33.4586 18.4071 33.388 18.2655 33.388C18.1239 33.388 17.9823 33.3175 17.8407 33.3175C17.8407 33.1057 17.9115 32.8939 17.9115 32.6822C17.9823 32.3998 17.9823 32.188 18.0531 31.9763C18.1239 31.7645 18.1239 31.4822 18.1947 31.2704C18.2655 31.0586 18.2655 30.8469 18.3363 30.7763H18.9734L19.823 32.541C20.1062 32.541 20.3186 32.4704 20.4602 32.3998C20.6018 32.3292 20.7434 32.188 20.8142 31.9763C20.8849 31.7645 20.9557 31.4822 20.9557 31.1292C20.9557 30.7763 20.9557 30.3527 20.9557 29.8586L20.3894 20.6822C20.3186 19.9057 20.4602 19.2704 20.7434 18.7763C21.0265 18.2822 21.3097 17.8586 21.7345 17.5763C22.1593 17.2939 22.5841 17.0822 23.0796 16.941C23.5752 16.7998 24 16.7998 24.4248 16.7998C24.4956 16.7998 24.6372 16.7998 24.7788 16.7998C24.9203 16.7998 25.0619 16.7998 25.2743 16.8704C25.4867 16.941 25.6283 16.941 25.7699 16.941C25.9115 16.941 26.0531 17.0116 26.1947 17.0116C26.1947 17.2233 26.1239 17.4351 26.1239 17.7175C26.1239 17.9292 26.0531 18.2116 25.9823 18.4233C25.9115 18.6351 25.9115 18.9175 25.8407 19.1292C25.7699 19.341 25.7699 19.5527 25.6991 19.6233H25.0619L24.2124 17.8586C24 17.8586 23.7876 17.9292 23.646 17.9998C23.5044 18.0704 23.3628 18.2116 23.292 18.4233C23.2212 18.6351 23.1504 18.9175 23.0796 19.2704C23.0796 19.6233 23.0796 20.0469 23.0796 20.541L23.646 29.6469Z" fill="#E1B425"/>
<path d="M19.469 44.1882C19.0443 44.4706 18.6195 44.7529 18.1947 45.0353C17.9115 45.1765 17.6991 45.3176 17.4159 45.3176C17.2035 45.3176 16.9912 45.247 16.7788 45.1059C11.2566 41.647 5.30974 37.8353 2.61947 31.6941C1.06195 23.5765 2.33629 15.1059 1.91151 6.91764C1.91151 6.5647 1.91151 6.42352 1.98231 6.28234C2.05311 6.14117 2.26549 6.07058 2.69027 5.9294C3.11505 5.78823 3.46903 5.71764 3.89381 5.57646L17.4159 0.564697L0.424783 4.65882C0.0708008 4.7294 0.212396 4.94117 0.283192 5.15293C0.0708029 5.29411 0.212393 5.57646 0.141596 5.71764V9.17646C0.141596 9.38823 0.141596 9.5294 0.141596 9.74117C0.141596 9.81176 0.141596 9.88234 0.141596 9.95293V19.3412C0.141596 19.4118 0.141596 19.4823 0.141596 19.4823C0.212393 20.5412 0.141596 21.6706 0.141596 22.7294V27.1765H0.0708008C0.141597 30.2823 0.707971 33.247 2.76107 35.8588C6.37169 40.6588 11.5398 43.9765 16.6372 47.0118C16.9204 47.1529 17.1327 47.2941 17.4159 47.2941C17.4159 47.2941 18.4071 46.8706 19.8938 46.0235C22.2301 44.6118 24.4956 43.0588 26.6903 41.3647C29.9469 38.6118 32.9912 34.9412 33.8407 30.7059C33.5575 31.7647 31.7168 37.5529 19.469 44.1882Z" fill="#E1B425"/>
</g>
<defs>
<clipPath id="clip0_575_335">
<rect width="34" height="48" fill="white"/>
</clipPath>
</defs>
</svg>

