<svg width="104" height="48" viewBox="0 0 104 48" fill="none" xmlns="http://www.w3.org/2000/svg">
<path fill-rule="evenodd" clip-rule="evenodd" d="M6.62134 4.25118H24.0587C24.544 4.25118 24.9253 4.62833 24.9253 5.10833C24.9253 5.58833 24.544 5.96547 24.0587 5.96547H21.5627V11.3826C21.5627 13.474 24.4053 13.8855 26 13.8855C30.6453 13.8855 32.4827 11.8969 32.864 11.4169V5.96547H30.6453C30.16 5.96547 29.7787 5.58833 29.7787 5.10833C29.7787 4.62833 30.16 4.25118 30.6453 4.25118H36.7467C37.232 4.25118 37.6133 4.62833 37.6133 5.10833C37.6133 5.58833 37.232 5.96547 36.7467 5.96547H34.5973V19.234H36.7467C37.232 19.234 37.6133 19.6112 37.6133 20.0912C37.6133 20.5712 37.232 20.9483 36.7467 20.9483H27.664C27.1787 20.9483 26.7973 20.5712 26.7973 20.0912C26.7973 19.6112 27.1787 19.234 27.664 19.234H32.864V13.9198C31.512 14.8112 29.328 15.7712 25.9653 15.7712C20.176 15.7712 19.656 12.4455 19.656 11.4512V5.96547H6.62134C6.48267 6.30833 6.27467 6.6169 6.032 6.89118C5.58134 7.3369 4.92267 7.61118 4.22934 7.61118C3.536 7.61118 2.912 7.3369 2.42667 6.89118C1.976 6.44547 1.69867 5.79404 1.69867 5.10833C1.69867 4.42261 1.976 3.80547 2.42667 3.32547C2.87734 2.87975 3.536 2.60547 4.22934 2.60547C4.92267 2.60547 5.54667 2.87975 6.032 3.32547C6.27467 3.59975 6.48267 3.90833 6.62134 4.25118ZM41.6 43.1998H43.9227V29.6569H41.9467C41.4613 29.6569 41.08 29.2798 41.08 28.7998C41.08 28.3198 41.4613 27.9426 41.9467 27.9426H48.36C48.8453 27.9426 49.2267 28.3198 49.2267 28.7998C49.2267 29.2798 48.8453 29.6569 48.36 29.6569H45.6907V34.7312H48.984C49.296 33.0855 50.0587 31.6112 51.168 30.4455C52.624 28.9026 54.6347 27.9426 56.8533 27.9426C59.072 27.9426 61.0827 28.9026 62.5387 30.4455C63.96 31.9883 64.8613 34.0798 64.8613 36.4112C64.8613 38.7426 63.96 40.834 62.5387 42.3769C61.0827 43.9198 59.072 44.8798 56.8533 44.8798C54.6347 44.8798 52.624 43.9198 51.168 42.3769C49.7467 40.8683 48.8453 38.7426 48.8453 36.4455H45.7253V43.1998H48.048C48.5333 43.1998 48.9147 43.5769 48.9147 44.0569C48.9147 44.5369 48.5333 44.914 48.048 44.914H41.6C41.1147 44.914 40.7333 44.5369 40.7333 44.0569C40.768 43.5769 41.1493 43.1998 41.6 43.1998ZM61.1173 31.714C60.008 30.5483 58.4827 29.794 56.8187 29.794C55.1547 29.794 53.6293 30.514 52.52 31.714C51.4107 32.914 50.7173 34.5598 50.7173 36.4112C50.7173 38.2626 51.4107 39.9083 52.52 41.1083C53.6293 42.274 55.1547 43.0283 56.8187 43.0283C58.4827 43.0283 60.008 42.3083 61.1173 41.1083C62.2267 39.9083 62.92 38.2626 62.92 36.4112C62.92 34.5598 62.2267 32.914 61.1173 31.714ZM6.62134 43.1998H26.7973V29.6569H19.3787V35.4512C19.3787 35.9312 18.9973 36.3083 18.512 36.3083C18.0267 36.3083 17.6453 35.9312 17.6453 35.4512V28.1826C17.6453 28.1826 17.6453 28.1483 17.68 28.1483L17.7147 28.114V28.0798H17.784L17.8187 28.0455H36.5733V35.5198C36.5733 35.9998 36.192 36.3769 35.7067 36.3769C35.2213 36.3769 34.84 35.9998 34.84 35.5198V29.6569H28.496V43.1998H33.1413C33.6267 43.1998 34.008 43.5769 34.008 44.0569C34.008 44.5369 33.6267 44.914 33.1413 44.914H6.62134C6.48267 45.2569 6.27467 45.5655 6.032 45.8398C5.58134 46.2855 4.92267 46.5598 4.22934 46.5598C3.536 46.5598 2.912 46.2855 2.42667 45.8398C1.976 45.394 1.69867 44.7426 1.69867 44.0569C1.69867 43.3712 1.976 42.754 2.42667 42.274C2.87734 41.8283 3.536 41.554 4.22934 41.554C4.92267 41.554 5.54667 41.8283 6.032 42.274C6.27467 42.514 6.48267 42.8569 6.62134 43.1998ZM4.992 43.2683C4.784 43.0626 4.50667 42.9598 4.19467 42.9598C3.88267 42.9598 3.60534 43.0969 3.39734 43.2683C3.18934 43.474 3.08534 43.7483 3.08534 44.0569C3.08534 44.3655 3.224 44.6398 3.39734 44.8455C3.60534 45.0512 3.88267 45.154 4.19467 45.154C4.50667 45.154 4.784 45.0169 4.992 44.8455C5.2 44.6398 5.304 44.3655 5.304 44.0569C5.33867 43.7483 5.2 43.474 4.992 43.2683ZM80.3573 43.1998H82.9227V36.4455H71.7947V43.1998H74.3253C74.8107 43.1998 75.192 43.5769 75.192 44.0569C75.192 44.5369 74.8107 44.914 74.3253 44.914H67.912C67.4267 44.914 67.0453 44.5369 67.0453 44.0569C67.0453 43.5769 67.4267 43.1998 67.912 43.1998H70.0613V29.6569H67.912C67.4267 29.6569 67.0453 29.2798 67.0453 28.7998C67.0453 28.3198 67.4267 27.9426 67.912 27.9426H74.3253C74.8107 27.9426 75.192 28.3198 75.192 28.7998C75.192 29.2798 74.8107 29.6569 74.3253 29.6569H71.7947V34.7312H82.9227V29.6569H80.6C80.1147 29.6569 79.7333 29.2798 79.7333 28.7998C79.7333 28.3198 80.1147 27.9426 80.6 27.9426H86.9787C87.464 27.9426 87.8453 28.3198 87.8453 28.7998C87.8453 29.2798 87.464 29.6569 86.9787 29.6569H84.656V43.1998H97.552C97.6907 42.8569 97.8987 42.5483 98.1413 42.274C98.592 41.8283 99.2507 41.554 99.944 41.554C100.637 41.554 101.261 41.8283 101.747 42.274C102.197 42.7198 102.475 43.3712 102.475 44.0569C102.475 44.7426 102.197 45.3598 101.747 45.8398C101.296 46.2855 100.637 46.5598 99.944 46.5598C99.2507 46.5598 98.6267 46.2855 98.1413 45.8398C97.864 45.5655 97.6907 45.2569 97.552 44.914H80.3573C79.872 44.914 79.4907 44.5369 79.4907 44.0569C79.4907 43.5769 79.872 43.1998 80.3573 43.1998ZM100.741 43.2683C100.533 43.0626 100.256 42.9598 99.944 42.9598C99.632 42.9598 99.3547 43.0969 99.1467 43.2683C98.9387 43.474 98.8347 43.7483 98.8347 44.0569C98.8347 44.3655 98.9733 44.6398 99.1467 44.8455C99.3547 45.0512 99.632 45.154 99.944 45.154C100.256 45.154 100.533 45.0169 100.741 44.8455C100.949 44.6398 101.053 44.3655 101.053 44.0569C101.053 43.7483 100.915 43.474 100.741 43.2683ZM70.0613 19.234V5.96547H68.7093C68.224 5.96547 67.8427 5.58833 67.8427 5.10833C67.8427 4.62833 68.224 4.25118 68.7093 4.25118H97.552C97.6907 3.90833 97.8987 3.59975 98.1413 3.32547C98.592 2.87975 99.2507 2.60547 99.944 2.60547C100.637 2.60547 101.261 2.87975 101.747 3.32547C102.197 3.77118 102.475 4.42261 102.475 5.10833C102.475 5.79404 102.197 6.41118 101.747 6.89118C101.296 7.3369 100.637 7.61118 99.944 7.61118C99.2507 7.61118 98.6267 7.3369 98.1413 6.89118C97.864 6.6169 97.6907 6.30833 97.552 5.96547H84.4133V19.234H87.1867C87.672 19.234 88.0533 19.6112 88.0533 20.0912C88.0533 20.5712 87.672 20.9483 87.1867 20.9483H80.392C79.9067 20.9483 79.5253 20.5712 79.5253 20.0912C79.5253 19.6112 79.9067 19.234 80.392 19.234H82.68V5.96547H71.7947V19.234H74.3253C74.8107 19.234 75.192 19.6112 75.192 20.0912C75.192 20.5712 74.8107 20.9483 74.3253 20.9483H67.5307C67.0453 20.9483 66.664 20.5712 66.664 20.0912C66.664 19.6112 67.0453 19.234 67.5307 19.234H70.0613ZM100.741 4.35404C100.533 4.14833 100.256 4.04547 99.944 4.04547C99.632 4.04547 99.3547 4.18261 99.1467 4.35404C98.9387 4.55975 98.8347 4.83404 98.8347 5.14261C98.8347 5.45118 98.9733 5.72547 99.1467 5.93118C99.3547 6.1369 99.632 6.23975 99.944 6.23975C100.256 6.23975 100.533 6.10261 100.741 5.93118C100.949 5.72547 101.053 5.45118 101.053 5.14261C101.053 4.79975 100.915 4.52547 100.741 4.35404ZM42.224 4.25118H48.3253C48.8107 4.25118 49.192 4.62833 49.192 5.10833C49.192 5.58833 48.8107 5.96547 48.3253 5.96547H46.1413V17.9655L57.6507 4.6969L57.7547 4.59404C57.928 4.38833 58.1707 4.28547 58.448 4.28547H62.9547C63.44 4.28547 63.8213 4.66261 63.8213 5.14261C63.8213 5.62261 63.44 5.99975 62.9547 5.99975H60.32V19.2683H63.024C63.5093 19.2683 63.8907 19.6455 63.8907 20.1255C63.8907 20.6055 63.5093 20.9826 63.024 20.9826H56.2293C55.744 20.9826 55.3627 20.6055 55.3627 20.1255C55.3627 19.6455 55.744 19.2683 56.2293 19.2683H58.5867V6.23975L46.072 20.6398C45.864 20.8798 45.5867 20.9483 45.3093 20.914H42.224C41.7387 20.914 41.3573 20.5369 41.3573 20.0569C41.3573 19.5769 41.7387 19.1998 42.224 19.1998H44.408V5.96547H42.224C41.7387 5.96547 41.3573 5.58833 41.3573 5.10833C41.392 4.66261 41.7733 4.25118 42.224 4.25118ZM4.992 4.35404C4.784 4.14833 4.50667 4.04547 4.19467 4.04547C3.88267 4.04547 3.60534 4.18261 3.39734 4.35404C3.224 4.52547 3.12 4.79975 3.12 5.10833C3.12 5.4169 3.25867 5.69118 3.432 5.8969C3.64 6.10261 3.91734 6.20547 4.22934 6.20547C4.54134 6.20547 4.81867 6.06833 5.02667 5.8969C5.23467 5.69118 5.33867 5.4169 5.33867 5.10833C5.33867 4.79975 5.2 4.52547 4.992 4.35404Z" fill="#365EDC"/>
</svg>

